<?xml version="1.0" standalone="no"?><!DOCTYPE svg PUBLIC "-//W3C//DTD SVG 1.1//EN" "http://www.w3.org/Graphics/SVG/1.1/DTD/svg11.dtd"><svg t="1587629246867" class="icon" viewBox="0 0 1024 1024" version="1.1" xmlns="http://www.w3.org/2000/svg" p-id="18542" xmlns:xlink="http://www.w3.org/1999/xlink" width="200" height="200"><defs><style type="text/css"></style></defs><path d="M0 567.22432v44.374016c0 21.489664 17.422336 38.912 38.912 38.912s38.912-17.422336 38.912-38.912v-44.374016c0-21.489664-17.422336-38.912-38.912-38.912-21.491712 0-38.912 17.422336-38.912 38.912z" p-id="18543" fill="#d4237a"></path><path d="M366.481408 589.412352m-56.32 0a56.32 56.32 0 1 0 112.64 0 56.32 56.32 0 1 0-112.64 0Z" p-id="18544" fill="#d4237a"></path><path d="M657.518592 589.412352m-56.32 0a56.32 56.32 0 1 0 112.64 0 56.32 56.32 0 1 0-112.64 0Z" p-id="18545" fill="#d4237a"></path><path d="M946.176 567.22432v44.374016c0 21.489664 17.422336 38.912 38.912 38.912s38.912-17.422336 38.912-38.912v-44.374016c0-21.489664-17.422336-38.912-38.912-38.912-21.491712 0-38.912 17.422336-38.912 38.912zM571.598848 94.8224a202.018816 202.018816 0 0 1-119.199744 0c-20.750336-6.213632-45.361152-0.380928-56.426496 18.112512-11.083776 18.3296 2.92864 46.825472 33.456128 56.244224a279.877632 279.877632 0 0 0 165.138432 0c30.527488-9.4208 44.539904-37.916672 33.456128-56.244224-11.063296-18.495488-35.674112-24.326144-56.424448-18.112512zM786.41152 945.164288H237.586432C170.950656 945.164288 116.736 890.949632 116.736 824.313856V443.435008h0.497664c1.193984-49.85856 7.098368-99.577856 46.833664-139.311104 45.441024-45.441024 110.344192-70.465536 182.751232-70.465536 38.111232 0 77.277184 6.73792 116.40832 20.027392 3.188736 1.083392 9.17504 3.268608 24.219648 9.711616 15.58528 6.672384 33.497088 6.647808 49.143808-0.069632 13.883392-5.961728 19.44576-8.015872 22.423552-9.04192 55.595008-19.161088 112.273408-25.112576 163.915776-17.209344 54.030336 8.269824 101.404672 31.453184 136.998912 67.045376 39.737344 39.737344 45.641728 89.45664 46.835712 139.313152h0.483328l0.014336 38.912v341.962752c0.002048 66.639872-54.212608 120.854528-120.850432 120.854528zM194.56 483.64544v340.668416c0 23.724032 19.3024 43.026432 43.026432 43.026432H786.41152c23.72608 0 43.02848-19.3024 43.02848-43.02848l-0.01024-341.434368c-0.067584-4.937728-0.110592-9.826304-0.151552-14.657536-0.473088-54.560768-1.839104-86.528-24.375296-109.062144-49.225728-49.221632-133.732352-61.212672-220.524544-31.29344-1.267712 0.438272-5.4784 1.994752-17.086464 6.979584-35.13344 15.081472-75.399168 15.116288-110.477312 0.098304-12.654592-5.419008-17.229824-7.092224-18.610176-7.561216-31.055872-10.5472-61.802496-15.896576-91.383808-15.896576-52.36736 0-96.536576 16.484352-127.72352 47.671296-22.534144 22.532096-23.90016 54.499328-24.373248 109.060096-0.043008 4.83328-0.083968 9.721856-0.151552 14.659584l-0.012288 0.770048z" p-id="18546" fill="#d4237a"></path></svg>