<?xml version="1.0" standalone="no"?><!DOCTYPE svg PUBLIC "-//W3C//DTD SVG 1.1//EN" "http://www.w3.org/Graphics/SVG/1.1/DTD/svg11.dtd"><svg t="1586957863685" class="icon" viewBox="0 0 1026 1024" version="1.1" xmlns="http://www.w3.org/2000/svg" p-id="2157" xmlns:xlink="http://www.w3.org/1999/xlink" width="200.390625" height="200"><defs><style type="text/css"></style></defs><path d="M1026.886679 510.009961c-9.701997 294.062908-225.683929 511.68284-510.58984 513.971839C227.359929 1026.303799 1.102 806.166868 0.005 510.42696-1.06 224.13005 226.683929 0.12812 512.01384 0.00012c286.132911-0.192 506.363842 224.58293 514.872839 510.009841z m-62.71698 9.631997C978.287694 279.430033 754.446764 59.133102 521.939837 59.650101c-250.011922 0.517-452.619859 197.417938-463.027855 440.370863C48.599985 740.684889 271.151915 968.554817 506.469842 965.104818c249.841922-3.673999 455.960858-199.767938 457.699857-445.46286z" p-id="2158" fill="#d4237a"></path><path d="M310.674903 491.736966c37.545988 21.459993 67.191979 47.269985 91.619971 79.046976 40.443987 52.589984 78.601975 46.919985 122.267962 1.059999 72.411977-76.084976 148.367954-148.785954 222.262931-223.48293 17.469995-17.626994 37.484988-40.217987 59.809981-19.078994 22.136993 20.977993 2.545999 40.635987-16.306995 59.035982-96.09497 93.778971-191.93594 187.915941-285.005911 284.652911-28.713991 29.837991-47.981985 34.998989-77.535976 3.353999-42.923987-45.982986-88.814972-89.169972-133.801958-133.126959-10.246997-10.021997-19.882994-19.948994-7.960997-33.543989 6.603998-7.477998 16.433995-12.084996 24.649992-17.916995z" p-id="2159" fill="#d4237a"></path></svg>