<?xml version="1.0" standalone="no"?><!DOCTYPE svg PUBLIC "-//W3C//DTD SVG 1.1//EN" "http://www.w3.org/Graphics/SVG/1.1/DTD/svg11.dtd"><svg t="1585933938132" class="icon" viewBox="0 0 1024 1024" version="1.1" xmlns="http://www.w3.org/2000/svg" p-id="10592" xmlns:xlink="http://www.w3.org/1999/xlink" width="200" height="200"><defs><style type="text/css"></style></defs><path d="M512.3 898.3c-12.5 0-24.9-2.3-36.7-6.8-107.8-41.2-206.5-107-277.7-185.3-83.5-91.7-127.6-197.8-127.6-306.8 0-2.4 0-4.8 0.1-7.2 0-1.2-0.1-2.3-0.1-3.6 0-11.3 0.8-22.8 2.3-34.1 0.2-1.9 0.4-3.8 0.7-5.7 0-0.3 0.1-0.7 0.2-1 20.1-127.6 132.1-223.3 261-223.3 80 0 154.8 35.7 205.2 97.9 14.1 17.4 11.5 43-6 57.1-17.4 14.1-43 11.5-57.1-6-34.9-43.1-86.7-67.8-142.1-67.8-89.4 0-167 66.5-180.7 154.7l-0.2 1.4c0 0.2-0.1 1.1-0.1 1.3-1 9.2-1.5 19-1.7 29.1v1.2c-0.1 2.3-0.1 4.1-0.1 5.9 0 194.4 177.3 349.1 353 416.2 5 1.9 10.5 1.9 15.5 0 260.3-97.7 352.7-285.3 352.7-416.2v-4.6c0-0.9-0.1-1.7-0.1-2.6v-0.5c-0.2-10.4-0.8-19.7-1.7-28.6 0-0.4-0.1-0.7-0.1-1.1 0-0.6-0.1-1.3-0.2-1.9-13.5-87.8-91.2-154.4-180.7-154.4-15.5 0-30.9 1.9-45.8 5.8-21.7 5.6-43.9-7.5-49.5-29.2-5.6-21.7 7.5-43.9 29.2-49.5 21.5-5.5 43.7-8.3 66.1-8.3 129.2 0 241.5 96.2 261.1 223.8 0 0.2 0.1 0.4 0.1 0.6 0.2 1.8 0.5 3.7 0.7 5.5 1.5 11.4 2.3 22.8 2.3 34.1 0 1.2 0 2.4-0.1 3.6 0.1 2.1 0.1 4.6 0.1 7.2 0 109.3-43.7 215.4-126.3 306.8-71.5 79-170.6 144.9-279.4 185.7-11.7 4.4-24 6.6-36.3 6.6z" fill="#FF517F" p-id="10593"></path><path d="M745.2 328.8m-50.8 0a50.8 50.8 0 1 0 101.6 0 50.8 50.8 0 1 0-101.6 0Z" fill="#FFC6D5" p-id="10594"></path></svg>