<?xml version="1.0" standalone="no"?><!DOCTYPE svg PUBLIC "-//W3C//DTD SVG 1.1//EN" "http://www.w3.org/Graphics/SVG/1.1/DTD/svg11.dtd"><svg t="1585933998557" class="icon" viewBox="0 0 1024 1024" version="1.1" xmlns="http://www.w3.org/2000/svg" p-id="15863" xmlns:xlink="http://www.w3.org/1999/xlink" width="200" height="200"><defs><style type="text/css"></style></defs><path d="M0 0h1024v1024H0z" fill-opacity="0" p-id="15864" fill="#d81e06"></path><path d="M231.600242 716.14614C158.965847 643.081838 95.299525 554.100955 72.884341 459.481283c-22.425182-91.800277-2.689422-189.219347 62.766515-256.664857a243.077776 243.077776 0 0 1 251.076058-62.756517 254.865244 254.865244 0 0 1 125.543028 95.549472c44.840366-64.636113 117.474761-106.787057 200.866845-106.787058 68.145359 0 129.972076 28.093964 174.862432 74.983891 65.455937 67.44551 85.181699 164.86458 63.666322 256.664857-22.425182 95.499483-86.091504 184.480366-157.826092 256.594872-108.506688 108.676652-237.628947 178.961551-280.6697 178.961551-16.996348 0-44.840366-9.367987-79.812853-28.103962-58.287477-30.883365-133.611294-84.331882-201.756654-151.777392z m152.407256-479.347015c-116.64494 0-211.204624 94.559684-211.204624 211.204624a19.205874 19.205874 0 0 0 38.40175 0 172.802874 172.802874 0 0 1 172.802874-172.842866 19.205874 19.205874 0 0 0 0-38.401749z" fill="#d81e06" p-id="15865"></path></svg>