<?xml version="1.0" standalone="no"?><!DOCTYPE svg PUBLIC "-//W3C//DTD SVG 1.1//EN" "http://www.w3.org/Graphics/SVG/1.1/DTD/svg11.dtd"><svg t="1587634393493" class="icon" viewBox="0 0 1024 1024" version="1.1" xmlns="http://www.w3.org/2000/svg" p-id="16581" xmlns:xlink="http://www.w3.org/1999/xlink" width="200" height="200"><defs><style type="text/css"></style></defs><path d="M385.7 718c9.8 0 19.2 1.8 28 5.4 8.8 3.6 16.6 8.7 23.3 15.2 6.7 6.5 11.9 14.1 15.5 22.9 3.6 8.8 5.4 18.1 5.4 28 0 9.8-1.8 19.2-5.4 28-3.6 8.8-8.8 16.4-15.5 22.9-6.7 6.5-14.5 11.7-23.3 15.5-8.8 3.9-18.1 5.8-28 5.8-10.4 0-19.8-1.9-28.4-5.8-8.5-3.9-16.2-9.1-22.9-15.5-6.7-6.5-11.9-14.1-15.5-22.9-3.6-8.8-5.4-18.1-5.4-28 0-9.8 1.8-19.2 5.4-28 3.6-8.8 8.8-16.4 15.5-22.9 6.7-6.5 14.4-11.5 22.9-15.2 8.6-3.6 18-5.4 28.4-5.4z m323.2 1.5c9.8 0 19.3 1.8 28.4 5.4 9.1 3.6 16.8 8.7 23.3 15.2s11.7 14.1 15.5 22.9c3.9 8.8 5.8 18.1 5.8 28 0 9.8-1.9 19.2-5.8 28s-9.1 16.4-15.5 22.9c-6.5 6.5-14.2 11.7-23.3 15.5-9.1 3.9-18.5 5.8-28.4 5.8-9.8 0-19.2-1.9-28-5.8s-16.4-9.1-22.9-15.5c-6.5-6.5-11.7-14.1-15.5-22.9-3.9-8.8-5.8-18.1-5.8-28 0-9.8 1.9-19.2 5.8-28s9.1-16.4 15.5-22.9c6.5-6.5 14.1-11.5 22.9-15.2 8.8-3.6 18.2-5.4 28-5.4z m130.5-441.3c14.5 0 25.8 1.9 33.8 5.8 8 3.9 13.7 8.7 17.1 14.4 3.4 5.7 4.9 11.8 4.7 18.3-0.3 6.5-1.2 12-2.7 16.7-1.6 4.7-4.8 14.2-9.7 28.7-4.9 14.5-10.5 30.4-16.7 47.8-6.2 17.4-12.3 34.6-18.3 51.7S837.1 492.2 834 502c-6.7 20.7-15.3 35.1-25.6 43.1-10.4 8-23 12-38.1 12H362.4L374 627h391.6c24.9 0 37.3 10.6 37.3 31.9 0 10.4-2.5 19.3-7.4 26.8S780.9 697 766.4 697H359.3c-10.4 0-19-2.3-26-7s-12.8-10.7-17.5-18.3c-4.7-7.5-8.4-15.7-11.3-24.5-2.8-8.8-5.1-17.1-6.6-24.9-0.5-3.1-1.9-10.6-4.3-22.5-2.3-11.9-5.2-26.8-8.5-44.7-3.4-17.9-7.1-37.8-11.3-59.8-4.1-22-8.3-44.2-12.4-66.4-9.8-52.3-21-110.6-33.4-174.8h-58.3c-7.8 0-14.2-1.9-19.4-5.8-5.2-3.9-9.5-8.5-12.8-14-3.4-5.4-5.7-11.3-7-17.5-1.3-6.2-1.9-11.9-1.9-17.1 0-10.4 3.5-18.9 10.5-25.6 7-6.7 16.4-10.1 28.4-10.1H246c10.4 0 18.6 1.6 24.9 4.7 6.2 3.1 11.1 7 14.8 11.7 3.6 4.7 6.2 9.6 7.8 14.8 1.6 5.2 2.8 9.6 3.9 13.2 1 4.1 2.1 10 3.1 17.5s2.1 15.2 3.1 22.9c1.6 9.3 3.1 19.2 4.7 29.5h531.1z m0 0" p-id="16582" fill="#d4237a"></path></svg>