<?xml version="1.0" standalone="no"?><!DOCTYPE svg PUBLIC "-//W3C//DTD SVG 1.1//EN" "http://www.w3.org/Graphics/SVG/1.1/DTD/svg11.dtd"><svg t="1587634331290" class="icon" viewBox="0 0 1024 1024" version="1.1" xmlns="http://www.w3.org/2000/svg" p-id="14428" xmlns:xlink="http://www.w3.org/1999/xlink" width="200" height="200"><defs><style type="text/css"></style></defs><path d="M309.461333 953.386667a85.333333 85.333333 0 0 1-114.090666-82.858667l6.442666-215.082667-131.626666-170.197333A85.333333 85.333333 0 0 1 113.749333 351.146667l206.549334-60.330667 121.173333-177.792a85.333333 85.333333 0 0 1 141.056 0l121.173333 177.792 206.506667 60.330667a85.333333 85.333333 0 0 1 43.605333 134.101333l-131.626666 170.197333 6.442666 215.04a85.333333 85.333333 0 0 1-114.090666 82.901334L512 880.810667l-202.538667 72.576z m426.496-325.973334l150.357334-194.389333-235.904-68.864L512 161.066667l-138.410667 203.093333-235.904 68.864 150.357334 194.389333-7.381334 245.674667L512 790.144l231.338667 82.944-7.381334-245.674667zM512 616.96a42.666667 42.666667 0 0 1-48.896-8.149333L375.466667 521.173333a42.666667 42.666667 0 0 1 60.330666-60.330666L512 537.002667l76.16-76.16a42.666667 42.666667 0 0 1 60.330667 60.330666l-87.594667 87.594667a42.666667 42.666667 0 0 1-48.896 8.149333z" p-id="14429" fill="#d4237a"></path></svg>