<?xml version="1.0" standalone="no"?><!DOCTYPE svg PUBLIC "-//W3C//DTD SVG 1.1//EN" "http://www.w3.org/Graphics/SVG/1.1/DTD/svg11.dtd"><svg t="1587634251584" class="icon" viewBox="0 0 1024 1024" version="1.1" xmlns="http://www.w3.org/2000/svg" p-id="11120" xmlns:xlink="http://www.w3.org/1999/xlink" width="200" height="200"><defs><style type="text/css"></style></defs><path d="M807.822222 910.222222H216.177778C96.711111 910.222222 0 813.511111 0 694.044444V329.955556C0 210.488889 96.711111 113.777778 216.177778 113.777778h597.333333c113.777778 0 210.488889 96.711111 210.488889 216.177778v369.777777c0 113.777778-96.711111 210.488889-216.177778 210.488889zM216.177778 199.111111c-68.266667 0-125.155556 56.888889-125.155556 125.155556v369.777777c0 68.266667 56.888889 125.155556 125.155556 125.155556h597.333333c68.266667 0 125.155556-56.888889 125.155556-125.155556V329.955556c0-68.266667-56.888889-125.155556-125.155556-125.155556H216.177778z" p-id="11121" fill="#d4237a"></path><path d="M512 557.511111c-5.688889 0-11.377778 0-17.066667-5.688889l-341.333333-170.666666c-22.755556-11.377778-34.133333-39.822222-22.755556-56.888889 11.377778-22.755556 34.133333-28.444444 56.888889-17.066667L512 466.488889l324.266667-159.288889c22.755556-11.377778 45.511111 0 56.888889 17.066667 11.377778 22.755556 0 45.511111-17.066667 56.888889l-341.333333 170.666666c-11.377778 0-17.066667 5.688889-22.755556 5.688889z" p-id="11122" fill="#d4237a"></path></svg>