<?xml version="1.0" standalone="no"?><!DOCTYPE svg PUBLIC "-//W3C//DTD SVG 1.1//EN" "http://www.w3.org/Graphics/SVG/1.1/DTD/svg11.dtd"><svg t="1587634348413" class="icon" viewBox="0 0 1278 1024" version="1.1" xmlns="http://www.w3.org/2000/svg" p-id="15243" xmlns:xlink="http://www.w3.org/1999/xlink" width="249.609375" height="200"><defs><style type="text/css"></style></defs><path d="M1006.37577 1022.926384H281.291294a59.127601 59.127601 0 0 1-67.943218-41.496367c-0.818593-2.39281-1.826092-5.415307-3.400309-9.130461-18.890607-65.865251-36.395903-146.528144-53.145575-224.483383-16.245922-75.562429-32.995594-153.4547-49.241516-210.882146l-19.520294-68.446967a115.673485 115.673485 0 0 1-74.869774-60.072131 129.211754 129.211754 0 0 1-8.878585-89.730384l0.881561-3.148435a118.129264 118.129264 0 0 1 59.568382-70.398996 114.791924 114.791924 0 0 1 89.415541-6.296869 119.640513 119.640513 0 0 1 68.572904 60.386974A120.773949 120.773949 0 0 1 226.760408 397.33244l127.763473 80.473987c13.601237 8.752648 27.013568 17.253421 40.4259 25.565288l159.373757-298.660501a117.247702 117.247702 0 0 1-34.254968-78.962738A118.192233 118.192233 0 0 1 555.582912 34.317937a126.881912 126.881912 0 0 1 84.000233-33.877156 116.051297 116.051297 0 0 1 83.307578 36.962621l5.667182 6.296869a115.106767 115.106767 0 0 1 26.572788 89.730385 127.196756 127.196756 0 0 1-34.947623 69.26556l160.822036 300.801437c57.616352-35.955123 113.343644-70.965715 168.567186-105.85037a125.937382 125.937382 0 0 1-8.18593-36.647778 119.640513 119.640513 0 0 1 110.258178-127.637536 116.303172 116.303172 0 0 1 120.71098 86.456012l4.848589 20.842637-1.88906 39.103557a121.781448 121.781448 0 0 1-87.211637 89.47851c-18.890607 69.895247-38.725745 156.477197-57.616352 240.414462-20.401856 90.486009-41.496367 184.120452-62.464942 258.171632-6.2339 28.021067-16.119985 55.097605-61.646348 55.097605zM289.729099 935.840684h697.000439c20.338887-74.428993 39.92215-161.451723 58.938695-245.577894 17.064515-75.562429 34.695749-153.769543 52.264013-220.390418q-93.697412 59.127601-187.205918 117.751452a70.839777 70.839777 0 0 1-55.601354 11.901082 70.650871 70.650871 0 0 1-41.937148-38.410901l-175.430773-328.255786L459.366752 567.347905a61.520411 61.520411 0 0 1-38.347933 31.862158 63.47244 63.47244 0 0 1-49.934172-8.437805c-21.283418-13.160456-42.377929-26.194975-63.409472-39.796213L178.715296 469.746434l12.593739 44.078084c17.001547 60.009162 34.066062 139.412682 50.374952 216.234484 15.86811 72.665869 32.114032 148.417204 48.045112 205.781682z m869.345746-616.211609h-1.889061a32.491845 32.491845 0 0 0-29.028566 35.262467 36.521841 36.521841 0 0 0 11.334364 23.865134l8.500774 7.997024 6.296869-0.818593a32.995594 32.995594 0 0 0 35.892154-26.320913v-11.712177a86.456013 86.456013 0 0 1-1.511249-4.911558 31.484345 31.484345 0 0 0-29.595285-23.361384z m-1070.467745 20.401856a58.812757 58.812757 0 0 0 0 25.187476 32.302938 32.302938 0 0 0 33.436375 20.401856h8.500773l8.122961-9.445304a35.073561 35.073561 0 0 0 6.296869-38.788713 31.484345 31.484345 0 0 0-18.26092-16.434828 29.658253 29.658253 0 0 0-22.353886 1.637186 31.988095 31.988095 0 0 0-15.742172 17.442327z m549.149953-253.071169a29.784191 29.784191 0 0 0-21.220449 8.941554 31.484345 31.484345 0 0 0-9.634209 24.683727 35.451373 35.451373 0 0 0 23.424353 32.554813l8.689679 4.470777 1.511249-1.007499a61.898223 61.898223 0 0 0 28.524817-35.892154 27.328412 27.328412 0 0 0-7.808118-22.290916 31.484345 31.484345 0 0 0-23.046541-11.460302z" p-id="15244" fill="#d4237a"></path></svg>