<?xml version="1.0" standalone="no"?><!DOCTYPE svg PUBLIC "-//W3C//DTD SVG 1.1//EN" "http://www.w3.org/Graphics/SVG/1.1/DTD/svg11.dtd"><svg t="1587626045095" class="icon" viewBox="0 0 1024 1024" version="1.1" xmlns="http://www.w3.org/2000/svg" p-id="6829" id="mx_n_1587626045096" data-spm-anchor-id="a313x.7781069.0.i12" xmlns:xlink="http://www.w3.org/1999/xlink" width="200" height="200"><defs><style type="text/css"></style></defs><path d="M672.606316 737.28m-284.564211 0a284.564211 284.564211 0 1 0 569.128421 0 284.564211 284.564211 0 1 0-569.128421 0Z" fill="#F87777" p-id="6830"></path><path d="M901.12 424.690526c-10.778947-15.090526-28.025263-23.713684-47.427368-25.869473H256.538947l-19.402105-79.764211v-2.155789l-4.311579-4.311579c0-2.155789-2.155789-2.155789-2.155789-4.311579s-2.155789-2.155789-4.311579-4.311579-2.155789-2.155789-4.311579-2.15579-4.311579-2.155789-6.467369-2.155789l-2.155789 2.155789H90.543158c-12.934737 0-23.713684 10.778947-23.713684 23.713685 0 12.934737 10.778947 23.713684 23.713684 23.713684h103.477895L282.408421 726.501053c-40.96 23.713684-56.050526 75.452632-32.336842 116.412631 15.090526 25.869474 43.115789 43.115789 73.296842 43.11579H799.797895c12.934737 2.155789 25.869474-8.623158 28.025263-23.713685s-8.623158-25.869474-23.713684-28.025263H325.524211c-19.402105 2.155789-36.648421-12.934737-38.804211-34.492631-2.155789-19.402105 12.934737-36.648421 34.492632-38.804211h459.183157c25.869474 0 49.583158-17.246316 56.050527-40.96L911.898947 474.273684c2.155789-17.246316-2.155789-34.492632-10.778947-49.583158zM864.471579 461.338947L786.863158 711.410526c-2.155789 4.311579-4.311579 6.467368-8.623158 6.467369H349.237895c-10.778947 0-19.402105-8.623158-21.557895-17.246316L269.473684 448.404211h584.218948c2.155789 0 6.467368 2.155789 6.467368 4.311578 2.155789 2.155789 4.311579 4.311579 4.311579 8.623158zM336.303158 974.416842c0 28.025263 21.557895 49.583158 49.583158 49.583158s49.583158-21.557895 49.583158-49.583158-21.557895-49.583158-49.583158-49.583158c-25.869474 0-47.427368 21.557895-49.583158 49.583158zM681.229474 974.416842c2.155789 28.025263 25.869474 47.427368 51.738947 45.271579 23.713684-2.155789 43.115789-21.557895 45.271579-45.271579-2.155789-28.025263-25.869474-47.427368-51.738947-45.271579-25.869474 0-45.271579 19.402105-45.271579 45.271579zM551.882105 181.086316l157.372632-38.804211-71.141053 183.242106 131.503158-32.336843 4.311579 15.090527-168.151579 40.96 71.141053-174.618948-120.724211 25.869474zM743.747368 79.764211l103.477895-2.15579L778.24 178.930526l86.231579-2.155789v10.778947l-109.945263 2.15579L821.355789 92.698947h-77.608421zM898.964211 0l58.206315 19.402105L898.964211 64.673684l49.583157 15.090527-2.155789 6.467368-64.673684-19.402105 60.362105-43.11579-45.271579-15.090526z" fill="#515151" p-id="6831" data-spm-anchor-id="a313x.7781069.0.i11" class="selected"></path></svg>