<?xml version="1.0" standalone="no"?><!DOCTYPE svg PUBLIC "-//W3C//DTD SVG 1.1//EN" "http://www.w3.org/Graphics/SVG/1.1/DTD/svg11.dtd"><svg t="1587132467825" class="icon" viewBox="0 0 1024 1024" version="1.1" xmlns="http://www.w3.org/2000/svg" p-id="4062" xmlns:xlink="http://www.w3.org/1999/xlink" width="200" height="200"><defs><style type="text/css"></style></defs><path d="M763.9821875 935.5390625c-11.2921875-0.48375-22.261875-3.226875-32.263125-8.38875l-220.359375-110.1796875-221.9728125 110.0184375c-22.7465625 11.9371875-50.3315625 10.00125-71.14125-5.000625-20.971875-15.6478125-31.456875-41.9428125-27.10125-67.753125l45.6525-237.298125-174.545625-162.76875c-18.39-18.7134375-25.4878125-45.815625-18.87375-71.1421875 7.74375-25.4878125 29.521875-44.0390625 55.9771875-47.4271875l242.46-44.2003125 108.56625-220.359375C461.834375 47.485625 485.3871875 32.4828125 511.521875 32c26.2940625 0 50.008125 15.1640625 61.1390625 39.0384375l108.405 220.359375 242.29875 42.4275c25.9725 3.5484375 47.2659375 22.2609375 54.2025 47.4271875 8.38875 25.003125 1.7746875 52.5890625-16.9378125 71.1403125L786.0828125 616.9371875l44.04 237.298125c4.678125 25.9715625-5.8078125 52.265625-27.10125 67.753125a61.1390625 61.1390625 0 0 1-39.039375 13.550625z" p-id="4063" fill="#d4237a"></path></svg>