<?xml version="1.0" standalone="no"?><!DOCTYPE svg PUBLIC "-//W3C//DTD SVG 1.1//EN" "http://www.w3.org/Graphics/SVG/1.1/DTD/svg11.dtd"><svg t="1587128191248" class="icon" viewBox="0 0 1024 1024" version="1.1" xmlns="http://www.w3.org/2000/svg" p-id="11452" xmlns:xlink="http://www.w3.org/1999/xlink" width="200" height="200"><defs><style type="text/css"></style></defs><path d="M925.654 318.985c-23.484-46.646-57.007-88.458-99.639-124.274-86.781-72.906-201.889-113.058-324.119-113.058-122.228 0-237.336 40.151-324.117 113.057-42.632 35.816-76.156 77.628-99.64 124.274C53.639 367.65 41.216 419.39 41.216 472.77c0 61.979 17.479 123.674 50.546 178.416 29.38 48.64 71.21 92.151 121.507 126.528l-1.82 180.108 160.164-109.778c42.15 10.517 85.916 15.844 130.282 15.844 122.23 0 237.337-40.152 324.118-113.057 42.632-35.816 76.156-77.627 99.64-124.272 24.501-48.667 36.925-100.408 36.925-153.787 0.002-53.38-12.422-105.121-36.923-153.787zM501.895 812.722c-43.878 0-87.06-5.738-128.345-17.057l-11.441-3.137-98.506 67.517 1.11-109.93-11.964-7.633C150.832 677.454 92.38 579.148 92.38 472.772c0-187.452 183.709-339.954 409.517-339.954 110.21 0 213.629 35.893 291.207 101.069 76.295 64.095 118.31 148.934 118.31 238.884 0 187.45-183.71 339.951-409.518 339.951z" p-id="11453"></path><path d="M218.556 472.655a49.318 49.318 0 1 0 98.637 0 49.318 49.318 0 1 0-98.637 0zM449.974 472.655a49.318 49.318 0 1 0 98.636 0 49.318 49.318 0 1 0-98.636 0zM681.393 472.655a49.316 49.316 0 1 0 98.633 0 49.316 49.316 0 1 0-98.633 0z" p-id="11454"></path></svg>