<?xml version="1.0" standalone="no"?><!DOCTYPE svg PUBLIC "-//W3C//DTD SVG 1.1//EN" "http://www.w3.org/Graphics/SVG/1.1/DTD/svg11.dtd"><svg t="1587127954363" class="icon" viewBox="0 0 1024 1024" version="1.1" xmlns="http://www.w3.org/2000/svg" p-id="1352" xmlns:xlink="http://www.w3.org/1999/xlink" width="200" height="200"><defs><style type="text/css"></style></defs><path d="M824.258222 554.294479c-63.896337 0-121.408036-38.337802-155.479421-89.454872-36.20959 51.11707-93.711297 89.454872-157.607635 89.454872-63.906329 0-121.408036-38.337802-155.489413-89.454872-36.20959 51.11707-91.583085 89.454872-157.607634 89.454872C89.455342 554.294479 0.00047 464.839607 0.00047 356.210839v-8.512851L151.213475 0.529555h719.905392L1022.341863 345.569775v8.522843c0 110.74699-89.454872 200.201862-198.083641 200.201861zM630.341082 338.086061h89.894503c0 65.175263 53.934703 141.581094 119.109966 141.581094 62.927151 0 114.613742-49.438479 119.109966-110.117519L832.591224 75.15688H189.861017L61.758603 369.549636c4.496224 60.679039 56.182815 110.117518 119.109966 110.117519 67.423375 0 119.109966-78.653943 119.109966-141.581094h89.894503c0 65.175263 53.934703 141.581094 119.109966 141.581094 69.661495 0 121.358078-78.653943 121.358078-141.581094z m179.00966 682.656675H212.981599c-83.070234 0-149.094784-63.896337-149.094784-142.700155V594.760494h65.21523v283.272096c0 31.943173 47.669965 71.48996 83.879554 71.489959h596.369143c34.071385 0 83.879554-39.546787 83.879554-71.489959V594.760494h65.21523v283.272096c0 78.813809-66.02455 142.710146-149.094784 142.710146z m0 0" fill="#d4237a" p-id="1353"></path></svg>