<?xml version="1.0" standalone="no"?><!DOCTYPE svg PUBLIC "-//W3C//DTD SVG 1.1//EN" "http://www.w3.org/Graphics/SVG/1.1/DTD/svg11.dtd"><svg t="1587041390198" class="icon" viewBox="0 0 1024 1024" version="1.1" xmlns="http://www.w3.org/2000/svg" p-id="8116" xmlns:xlink="http://www.w3.org/1999/xlink" width="200" height="200"><defs><style type="text/css"></style></defs><path d="M955.3972 186.42q-292.88-0.14-585.77 0c-8.28 0-17-0.42-24.75 1.81-21.21 6.06-33.12 20.33-30.53 43.09 2.41 21.13 14.78 33.34 36.71 34.27 10.16 0.43 20.35 0.57 30.52 0.57q248.47 0.05 496.93 0h45.44c-3.85 15.23-4.93 26.35-9.37 35.91C883.0272 370 851.7972 438.06 817.9172 504.77c-5.82 11.46-23 22-36.17 23.93-35.52 5.17-71.76 5.39-107.7 7.68-88.46 5.64-176.94 11-265.36 17.22-28.86 2-45.52 22.19-42.13 47.74 3.08 23.27 23.9 36.36 51.78 33.73 34-3.21 68.06-5.8 102.13-8.26 105-7.58 210-14.12 314.81-23.47 13.56-1.21 31.81-13.61 37.81-25.8q73.44-149.23 142.48-300.61c23.46-51.36-3.54-90.48-60.17-90.51z" p-id="8117" fill="#ffffff"></path><path d="M817.3072 731c-8.27-0.7-16.65-0.3-25-0.3-138.82 0-277.64-0.29-416.46 0.19-22.67 0.11-34.82-4.89-37.55-31.45-9-87.12-21.32-173.88-31.69-260.86C293.0272 325 280.4572 211.4 266.8472 97.87c-3.66-30.53-30.33-59.34-60.3-60.53-55.44-2.2-111-1.66-166.53-0.27C15.7272 37.68-0.7628 57.21 0.0272 78.39c0.84 21.68 17.51 36.82 43.11 37.38 32.38 0.72 64.78 0.31 97.17 0.39 45.3 0.12 45.33 0.12 52.48 43.81 0.75 4.55 0.75 9.22 1.28 13.81 9.76 84.28 19.32 168.58 29.38 252.83 12.25 102.55 25.68 205 37.11 307.61 5.57 50 30.63 75.5 80.62 75.65 76.81 0.23 153.63 0.06 230.44 0.06v-0.11h244.32c24.77 0 37.49-14.27 40.13-37.23 2.57-22.15-14.41-39.54-38.76-41.59zM734.8072 875c-35-0.67-57.56 21.11-57.87 55.88-0.31 35.59 20.94 57.19 56.3 57.25 34.73 0.06 57-22.25 56.85-57-0.13-33.5-21.78-55.48-55.28-56.13zM405.9672 875c-34.79-0.18-56.9 22-56.85 57 0 35.32 21.61 56.44 57.36 56.17 34.43-0.25 56.28-23 55.74-58-0.51-33.36-22.61-55.03-56.25-55.17z" p-id="8118" fill="#ffffff"></path></svg>